<?xml version="1.0" encoding="UTF-8" standalone="no"?>
<!DOCTYPE svg PUBLIC "-//W3C//DTD SVG 1.1//EN" "http://www.w3.org/Graphics/SVG/1.1/DTD/svg11.dtd">
<svg width="100%" height="100%" viewBox="0 0 1267 719" version="1.1" xmlns="http://www.w3.org/2000/svg" xmlns:xlink="http://www.w3.org/1999/xlink" xml:space="preserve" xmlns:serif="http://www.serif.com/" style="fill-rule:evenodd;clip-rule:evenodd;stroke-linecap:round;stroke-linejoin:round;stroke-miterlimit:0;">
    <g transform="matrix(1,0,0,1,-1809.22,-517.506)">
        <g id="Koala-Health-Logo" serif:id="Koala Health Logo" transform="matrix(0.99279,-0.119867,0.119867,0.99279,1239.01,254.548)">
            <g transform="matrix(0.9997,0.024485,-0.024485,0.9997,58.0359,-70.0327)">
                <g transform="matrix(1,0,0,1,-47.175,-55.1141)">
                    <path d="M768.071,491.712C889.553,456.274 981.227,522.77 1008.48,625.409C1021.2,673.33 1072.38,710.563 1072.38,763.776C1072.38,912.392 950.162,1011.53 803.112,1033.05C669.018,1052.67 563.95,942.757 545.843,819.922C544.549,811.14 531.25,846.918 528.857,838.308C522.472,815.335 524.262,785.462 525.347,760.489C526.392,736.449 544.772,677.764 542.01,670.096C536.49,654.767 513.664,697.55 519.102,680.176C527.164,654.42 557.396,629.73 574.858,608.873C601.017,577.626 633.969,564.913 662.36,546.479C679.368,535.436 599.664,561.059 616.295,549.195C660.022,518.002 733.47,510.432 788.778,504.814C806.59,503.005 749.709,497.069 768.071,491.712Z" style="fill:rgb(128,128,128);stroke:rgb(87,87,87);stroke-width:16px;"/>
                </g>
                <g transform="matrix(1,0,0,1,633.605,0.459781)">
                    <path d="M776.627,488.89C815.758,485.311 879.452,491.584 915.823,506.773C926.135,511.079 887.997,512.413 897.347,517.969C946.352,547.087 1034.77,590 1069.38,643.72C1077.95,657.02 1044.64,642.146 1051.23,655.214C1064.72,681.952 1072.38,738.44 1072.38,763.776C1072.38,795.279 1077.83,841.589 1067.87,869.696C1061.72,887.047 1056.5,835.498 1046.27,850.938C1018.74,892.501 1009.15,950.543 963.084,987.37C923.208,1019.25 851.058,1045.32 805.031,1045.39C786.93,1045.42 768.265,1044.74 751.978,1041.66C627.351,1018.09 533.839,895.215 533.839,763.776C533.839,700.245 570.276,645.381 608.751,600.652C622.835,584.28 637.299,563.165 648.321,549.03C680.174,508.182 725.092,493.604 776.627,488.89Z" style="fill:rgb(128,128,128);stroke:rgb(87,87,87);stroke-width:16px;"/>
                </g>
                <g transform="matrix(1.05736,0,0,1.05736,-171.676,-215.481)">
                    <circle cx="860.53" cy="887.972" r="166.111" style="fill:rgb(195,195,195);stroke:rgb(143,143,143);stroke-width:15.13px;"/>
                </g>
                <g transform="matrix(1.05736,0,0,1.05736,535.961,-146.469)">
                    <circle cx="860.53" cy="887.972" r="166.111" style="fill:rgb(195,195,195);stroke:rgb(143,143,143);stroke-width:15.13px;"/>
                </g>
                <g transform="matrix(0.99785,0.0655432,-0.0655432,0.99785,58.6304,-68.2866)">
                    <g transform="matrix(1.78906,0,0,1.78906,-456.267,-729.25)">
                        <path d="M860.53,721.861C899.185,724.057 932.797,731.025 956.265,747.981C996.127,776.781 1013.59,828.089 1026.64,887.972C1035.94,930.639 1052.43,991.571 1009.68,1022.48C969.008,1051.89 908.041,1054.88 860.53,1054.08C741.079,1052.09 626.05,995.699 683.65,872.031C712.774,809.501 741.052,756.721 786.735,733.312C807.272,722.788 831.227,720.195 860.53,721.861Z" style="fill:rgb(152,152,154);stroke:rgb(112,112,112);stroke-width:8.94px;"/>
                    </g>
                    <g transform="matrix(1.05427,0.080728,-0.0534864,0.698509,209.828,357.779)">
                        <path d="M861.172,761.825C859.411,757.395 912.409,894.701 973.481,797.321C1019.91,723.282 1102.16,941.996 1074.08,971.255C1040.34,1006.41 960.708,1025.16 865.685,1032.2C774.116,1039 690.186,1011.84 645.43,977.208C609.54,949.434 691.891,711.854 741.771,789.71C799.477,879.783 874.957,796.505 861.172,761.825Z" style="fill:rgb(195,195,195);"/>
                    </g>
                    <g transform="matrix(1,0,0,1,12.0661,-8.28261)">
                        <g transform="matrix(0.992979,0.118287,-0.118287,0.992979,113.251,-159.304)">
                            <path d="M1046.37,1090.65C1066.26,1071.62 1087.86,1073.91 1109.48,1087.75" style="fill:rgb(211,179,177);"/>
                            <path d="M1051.9,1096.43C1048.71,1099.48 1043.64,1099.37 1040.59,1096.18C1037.54,1092.99 1037.65,1087.92 1040.84,1084.87C1063.84,1062.86 1088.79,1065.01 1113.79,1081.01C1117.51,1083.39 1118.6,1088.35 1116.21,1092.06C1113.83,1095.78 1108.88,1096.87 1105.16,1094.49C1086.92,1082.81 1068.68,1080.38 1051.9,1096.43Z" style="fill:rgb(211,179,177);"/>
                        </g>
                        <g transform="matrix(0.992979,0.118287,-0.118287,0.992979,113.251,-159.304)">
                            <path d="M1070.68,1004.14C1071.12,999.746 1075.04,996.534 1079.43,996.971C1083.83,997.407 1087.04,1001.33 1086.6,1005.72C1083.55,1036.42 1056.76,1059.3 1026.29,1066.54C995.644,1073.83 961.962,1065.32 945.925,1035.13C943.854,1031.24 945.337,1026.39 949.236,1024.32C953.135,1022.25 957.983,1023.73 960.055,1027.63C972.461,1050.97 998.881,1056.61 1022.59,1050.98C1046.47,1045.3 1068.29,1028.19 1070.68,1004.14Z" style="fill:rgb(106,106,106);"/>
                        </g>
                        <g transform="matrix(0.992979,0.118287,-0.118287,0.992979,113.251,-159.304)">
                            <path d="M1071.69,1011.13C1069.23,1007.46 1070.2,1002.49 1073.87,1000.02C1077.53,997.56 1082.5,998.534 1084.97,1002.2C1092.57,1013.5 1099.19,1023.17 1110.11,1031.9C1122.18,1041.54 1135.5,1047.86 1149.42,1047.11C1163.38,1046.35 1177.58,1038.38 1191.62,1020.8C1194.38,1017.35 1199.42,1016.79 1202.87,1019.55C1206.32,1022.3 1206.88,1027.34 1204.12,1030.79C1186.39,1052.99 1167.9,1062.13 1150.28,1063.08C1132.61,1064.04 1115.45,1056.64 1100.12,1044.4C1087.84,1034.58 1080.24,1023.84 1071.69,1011.13Z" style="fill:rgb(106,106,106);"/>
                        </g>
                        <g transform="matrix(0.992979,0.118287,-0.118287,0.992979,113.251,-159.304)">
                            <path d="M1007.54,1064.44C1005.3,1060.63 1006.57,1055.72 1010.38,1053.49C1014.19,1051.25 1019.09,1052.52 1021.33,1056.33C1047.09,1100.15 1109.68,1104.12 1132.89,1056.88C1134.84,1052.91 1139.63,1051.28 1143.6,1053.22C1147.56,1055.17 1149.2,1059.97 1147.25,1063.93C1118.18,1123.1 1039.8,1119.32 1007.54,1064.44Z" style="fill:rgb(106,106,106);"/>
                        </g>
                        <g transform="matrix(1.40259,0.0889727,-0.0633073,0.997994,-406.984,-132.023)">
                            <path d="M1139.92,904.319C1139.92,873.098 1121.88,847.751 1099.67,847.751L1090.72,847.751C1068.51,847.751 1050.47,873.098 1050.47,904.319L1050.47,946.042C1050.47,977.263 1068.51,1002.61 1090.72,1002.61L1099.67,1002.61C1121.88,1002.61 1139.92,977.263 1139.92,946.042L1139.92,904.319Z"/>
                        </g>
                    </g>
                    <g>
                        <g transform="matrix(1.4166,0.17095,-0.187318,1.55224,-296.33,-493.77)">
                            <path d="M1000.96,734.044C997.5,706.219 980.192,685.038 959.387,685.038C936.098,685.038 917.191,711.577 917.191,744.267C917.191,754.664 919.141,764.877 922.844,773.881L941.952,773.881C937.426,769.639 934.129,764.255 932.688,758.089C928.527,740.286 941.404,722.668 961.427,718.77C977.406,715.659 993.137,722.22 1000.96,734.044Z" style="fill:white;"/>
                        </g>
                        <g transform="matrix(0.936029,-0.0845441,0.0845441,0.936029,-85.6383,170.331)">
                            <path d="M970.322,833.53C965.074,825.194 962.048,815.39 962.048,804.903C962.048,774.62 987.283,750.034 1018.37,750.034C1043.17,750.034 1064.25,765.691 1071.76,787.405C1071.22,792.939 1070.35,798.565 1069.14,804.236C1065.63,820.674 1059.45,836.248 1051.19,849.481C1050.71,849.818 1050.22,850.148 1049.73,850.47L970.322,833.53Z"/>
                        </g>
                        <g transform="matrix(1,-2.77556e-17,2.77556e-17,1,-276.569,-12.1703)">
                            <ellipse cx="1207.2" cy="820.829" rx="7.392" ry="7.19" style="fill:white;"/>
                        </g>
                    </g>
                    <g transform="matrix(-0.981329,-0.192336,-0.192336,0.981329,2316.78,217.657)">
                        <g transform="matrix(1.4166,0.17095,-0.187318,1.55224,-296.33,-493.77)">
                            <path d="M1000.96,734.044C997.5,706.219 980.192,685.038 959.387,685.038C936.098,685.038 917.191,711.577 917.191,744.267C917.191,754.664 919.141,764.877 922.844,773.881L941.952,773.881C937.426,769.639 934.129,764.255 932.688,758.089C928.527,740.286 941.404,722.668 961.427,718.77C977.406,715.659 993.137,722.22 1000.96,734.044Z" style="fill:white;"/>
                        </g>
                        <g transform="matrix(0.936029,-0.0845441,0.0845441,0.936029,-85.6383,170.331)">
                            <path d="M970.322,833.53C965.074,825.194 962.048,815.39 962.048,804.903C962.048,774.62 987.283,750.034 1018.37,750.034C1043.17,750.034 1064.25,765.691 1071.76,787.405C1071.22,792.939 1070.35,798.565 1069.14,804.236C1065.63,820.674 1059.45,836.248 1051.19,849.481C1050.71,849.818 1050.22,850.148 1049.73,850.47L970.322,833.53Z"/>
                        </g>
                        <g transform="matrix(-0.981329,-0.192336,-0.192336,0.981329,2290.29,233.391)">
                            <ellipse cx="1207.2" cy="820.829" rx="7.392" ry="7.19" style="fill:white;"/>
                        </g>
                    </g>
                </g>
                <g transform="matrix(0.441012,0.245939,-0.230734,0.413746,405.335,174.204)">
                    <path d="M1096.59,1120.03C1227.72,1120.03 1293.91,1064.27 1297.55,1075.74C1301.9,1089.43 1304.99,1114.97 1334.14,1129.53C1353.07,1138.99 1180.7,1204.33 1099.31,1196.01C1010.63,1186.93 937.546,1148.83 892.172,1124.02C844.212,1097.8 772.984,1022.59 747.655,986.198C723.618,965.855 965.454,1120.03 1096.59,1120.03Z" style="fill:rgb(116,116,116);fill-opacity:0.34;"/>
                </g>
                <g transform="matrix(-0.485118,0.140137,0.131473,0.455125,1895.47,332.097)">
                    <path d="M1104.99,1113.39C1235.62,1125.56 1308.77,1057.33 1312.42,1068.8C1316.77,1082.5 1322.65,1105.98 1334.14,1129.53C1343.79,1149.31 1147.11,1195.98 1069.52,1172.54C1033.67,1161.71 961.793,1161.3 897.811,1118.34C867.934,1098.28 795.45,1024.92 753.561,965.087C734.052,937.22 705.749,913.041 696.637,903.792C725.169,913.897 756.753,937.016 778.823,956.874C846.432,1017.71 910.638,1095.27 1104.99,1113.39Z" style="fill:rgb(116,116,116);fill-opacity:0.34;"/>
                </g>
                <g transform="matrix(-0.485118,0.140137,0.131473,0.455125,1609.58,529.325)">
                    <path d="M1121.61,978.768C1163.66,970.407 1230.13,956.883 1298.83,937.582C1440.75,897.714 1703.38,750.38 1705.84,758.107C1707.97,764.821 1639.38,820.344 1575.37,862.069C1506.14,907.205 1475.52,918.309 1445.37,932.443C1419.46,944.592 1450.4,933.95 1393.03,956.498C1352.82,972.304 1297.58,996.367 1237.04,1014.74C1186.08,1030.21 1161.05,1041.69 1102.94,1050.64C1075.89,1054.81 1032.55,1063.87 1018.72,1063.64C931.322,1062.17 890.215,1074.42 822.838,1037.83C785.386,1017.49 781.182,1014.21 741.767,973.737C718.275,949.614 705.749,913.041 696.637,903.792C725.169,913.897 717.233,952.038 852.362,987.902C946.539,1012.9 1060.02,991.016 1121.61,978.768Z" style="fill:rgb(116,116,116);fill-opacity:0.34;"/>
                </g>
            </g>
            <g id="Glasses">
                <g transform="matrix(1.46812,0.259583,-0.259583,1.46812,-1863.15,-1671.84)">
                    <path d="M2261.33,1243.96C2254.63,1243.96 2246.63,1245.24 2241.15,1248.32C2235.86,1251.29 2231.25,1257.05 2231.02,1259.62C2218.99,1393.74 2080.39,1377.9 2052.45,1328.17C2043.38,1312.03 2033.88,1278.58 2026.49,1248.38C2025.09,1242.65 2019.61,1244.8 2018.37,1239.45C2012.69,1214.76 2015.96,1198.57 2015.96,1198.57C2110.88,1172.1 2185.77,1176.45 2223.84,1237.5C2223.84,1237.5 2227.82,1227.48 2261.69,1227.48C2295.57,1227.48 2298.64,1237.5 2298.64,1237.5C2336.72,1176.45 2411.61,1172.1 2506.52,1198.57C2506.52,1198.57 2509.79,1214.76 2504.11,1239.45C2502.88,1244.8 2497.4,1242.65 2496,1248.38C2488.61,1278.58 2479.1,1312.03 2470.03,1328.17C2442.1,1377.9 2303.49,1393.74 2291.46,1259.62C2291.23,1257.05 2285.31,1251.12 2281.34,1248.32C2276.2,1244.69 2268.03,1243.96 2261.33,1243.96Z" style="fill:white;fill-opacity:0.23;"/>
                </g>
                <g transform="matrix(1.4827,0.254356,-0.254356,1.4827,-1902.46,-1679.91)">
                    <path d="M2261.33,1243.96C2254.63,1243.96 2246.63,1245.24 2241.15,1248.32C2235.86,1251.29 2231.25,1257.05 2231.02,1259.62C2218.99,1393.74 2080.39,1377.9 2052.45,1328.17C2043.38,1312.03 2033.88,1278.58 2026.49,1248.38C2025.09,1242.65 2019.61,1244.8 2018.37,1239.45C2012.69,1214.76 2015.96,1198.57 2015.96,1198.57C2110.88,1172.1 2185.77,1176.45 2223.84,1237.5C2223.84,1237.5 2239.61,1227.48 2261.69,1227.48C2283.77,1227.48 2298.64,1237.5 2298.64,1237.5C2336.72,1176.45 2411.61,1172.1 2506.52,1198.57C2506.52,1198.57 2509.79,1214.76 2504.11,1239.45C2502.88,1244.8 2497.4,1242.65 2496,1248.38C2488.61,1278.58 2479.1,1312.03 2470.03,1328.17C2442.1,1377.9 2303.49,1393.74 2291.46,1259.62C2291.23,1257.05 2285.31,1251.12 2281.34,1248.32C2276.2,1244.69 2268.03,1243.96 2261.33,1243.96ZM2131.68,1196.93C2069.68,1187.56 2047.31,1219.34 2052.97,1275.64C2057.45,1320.23 2079.23,1356.36 2131.68,1354.35C2175.09,1352.69 2208.51,1319.04 2210.39,1275.64C2212.37,1230.29 2176.84,1203.75 2131.68,1196.93ZM2391.72,1195.79C2346.56,1202.61 2311.04,1229.15 2313.01,1274.5C2314.89,1317.9 2348.31,1351.55 2391.72,1353.21C2444.17,1355.22 2465.95,1319.09 2470.43,1274.5C2476.09,1218.2 2453.72,1186.42 2391.72,1195.79Z" style="fill-opacity:0.78;"/>
                </g>
            </g>
        </g>
    </g>
</svg>
